<?xml version="1.0" encoding="UTF-8"?><svg id="Layer_1" xmlns="http://www.w3.org/2000/svg" viewBox="0 0 841.89 595.28"><defs><style>.cls-1{fill:#141334;}.cls-2{fill:#20bcd0;}</style></defs><g><g><ellipse class="cls-2" cx="349.86" cy="211.43" rx="33.32" ry="33.3"/><ellipse class="cls-2" cx="349.86" cy="383.85" rx="33.32" ry="33.3"/></g><g><ellipse class="cls-2" cx="492.03" cy="211.43" rx="33.32" ry="33.3"/><ellipse class="cls-2" cx="492.03" cy="383.85" rx="33.32" ry="33.3"/></g></g><g><path class="cls-1" d="M273.62,275.26v18.28h-17.25v-18.28h-8.44v44.75h8.44v-18.41h17.25v18.41h8.44v-44.75h-8.44Z"/><path class="cls-1" d="M330.42,279.16c-2.92-3.2-6.96-4.79-12.12-4.79s-9.19,1.59-12.11,4.79c-2.92,3.2-4.38,7.69-4.38,13.49v9.97c0,5.97,1.46,10.51,4.38,13.62,2.92,3.11,6.95,4.67,12.11,4.67s9.2-1.56,12.12-4.67c2.92-3.11,4.38-7.65,4.38-13.62v-9.97c0-5.8-1.46-10.29-4.38-13.49Zm-4.06,23.97c0,1.5-.13,2.86-.39,4.1-.25,1.23-.7,2.3-1.34,3.19-.64,.9-1.47,1.59-2.49,2.08-1.03,.49-2.3,.74-3.84,.74s-2.81-.25-3.83-.74c-1.03-.49-1.86-1.18-2.5-2.08-.64-.89-1.08-1.96-1.34-3.19-.25-1.24-.38-2.6-.38-4.1v-10.99c0-1.41,.15-2.73,.44-3.97,.3-1.23,.77-2.3,1.41-3.19,.64-.9,1.47-1.61,2.49-2.14,1.03-.54,2.26-.8,3.71-.8s2.69,.26,3.71,.8c1.02,.53,1.85,1.24,2.49,2.14,.64,.89,1.11,1.96,1.41,3.19,.3,1.24,.45,2.56,.45,3.97v10.99Z"/><path class="cls-1" d="M387.08,305.77c-.14-3.58-1.38-6.31-3.7-8.2-2.47-2-6.05-3.43-10.74-4.28-1.87-.34-3.42-.7-4.63-1.09-1.22-.38-2.2-.82-2.94-1.31-.64-.42-1.11-.88-1.42-1.39-.06-.09-.11-.18-.15-.27-.3-.62-.45-1.31-.45-2.08,0-1.49,.62-2.67,1.86-3.55,1.23-.87,2.92-1.31,5.05-1.31,2.51,0,4.46,.67,5.85,1.98,1.38,1.33,2.07,2.88,2.07,4.67v.56h8.44v-1.33c0-1.83-.35-3.57-1.05-5.24-.7-1.66-1.75-3.13-3.13-4.41-1.39-1.28-3.1-2.29-5.15-3.04-2.05-.74-4.39-1.11-7.03-1.11-2.35,0-4.47,.31-6.36,.96-1.9,.63-3.52,1.53-4.86,2.68-1.34,1.15-2.39,2.5-3.13,4.06-.75,1.55-1.12,3.25-1.12,5.08v.38c0,.69,.04,1.35,.11,1.97,.16,1.38,.51,2.61,1.04,3.66,.77,1.54,1.84,2.81,3.23,3.84,1.38,1.02,3.01,1.84,4.89,2.46,1.87,.62,3.94,1.12,6.2,1.5,1.7,.3,3.11,.66,4.22,1.09,1.1,.42,1.98,.9,2.62,1.44,.64,.53,1.08,1.13,1.34,1.79,.06,.16,.12,.33,.17,.49,.14,.51,.21,1.04,.21,1.58,0,1.54-.61,2.86-1.85,3.97-1.24,1.11-3.13,1.66-5.69,1.66-3.28,0-5.7-.8-7.25-2.4-1.23-1.26-1.98-2.87-2.23-4.81h-8.51c.11,1.88,.48,3.63,1.11,5.26,.77,1.98,1.9,3.71,3.39,5.18,1.49,1.47,3.36,2.62,5.59,3.45,2.24,.83,4.83,1.25,7.77,1.25,2.52,0,4.78-.32,6.78-.96,2-.64,3.71-1.56,5.11-2.75,1.41-1.2,2.49-2.63,3.23-4.32,.75-1.68,1.12-3.57,1.12-5.65v-.77c0-.23,0-.47-.01-.69Z"/><path class="cls-1" d="M406.01,275.26v8.06h11.89v36.69h8.44v-36.69h11.89v-8.06h-32.22Z"/><path class="cls-1" d="M486.15,279.16c-2.92-3.2-6.96-4.79-12.11-4.79s-9.2,1.59-12.12,4.79c-2.92,3.2-4.38,7.69-4.38,13.49v9.97c0,5.97,1.46,10.51,4.38,13.62,2.92,3.11,6.96,4.67,12.12,4.67s9.19-1.56,12.11-4.67,4.38-7.65,4.38-13.62v-9.97c0-5.8-1.46-10.29-4.38-13.49Zm-4.06,23.97c0,1.5-.13,2.86-.38,4.1-.26,1.23-.71,2.3-1.35,3.19-.64,.9-1.47,1.59-2.49,2.08-1.02,.49-2.3,.74-3.83,.74s-2.82-.25-3.84-.74c-1.02-.49-1.86-1.18-2.49-2.08-.64-.89-1.09-1.96-1.35-3.19-.25-1.24-.38-2.6-.38-4.1v-10.99c0-1.41,.15-2.73,.45-3.97,.29-1.23,.76-2.3,1.4-3.19,.64-.9,1.47-1.61,2.5-2.14,1.02-.54,2.26-.8,3.71-.8s2.68,.26,3.7,.8c1.03,.53,1.86,1.24,2.5,2.14,.63,.89,1.1,1.96,1.4,3.19,.3,1.24,.45,2.56,.45,3.97v10.99Z"/><path class="cls-1" d="M533.62,275.26v29.28c0,2.64-.62,4.71-1.86,6.2-1.23,1.49-3.17,2.24-5.81,2.24s-4.59-.75-5.82-2.24c-1.24-1.49-1.86-3.56-1.86-6.2v-29.28h-8.44v29.28c0,5.11,1.36,9.12,4.06,12.02,2.71,2.9,6.73,4.35,12.06,4.35s9.34-1.45,12.05-4.35c2.7-2.9,4.05-6.91,4.05-12.02v-29.28h-8.43Z"/><path class="cls-1" d="M561.74,275.26v8.06h11.9v36.69h8.43v-36.69h11.89v-8.06h-32.22Z"/></g></svg>